<svg width="405" height="117" viewBox="0 0 405 117" fill="none" xmlns="http://www.w3.org/2000/svg">
<path d="M114.178 40.016C112.834 40.016 111.65 39.568 110.626 38.672C109.666 37.712 109.186 36.624 109.186 35.408C109.186 34.192 109.666 33.136 110.626 32.24C111.65 31.344 112.834 30.896 114.178 30.896C115.586 30.896 116.738 31.344 117.634 32.24C118.594 33.136 119.074 34.192 119.074 35.408C119.074 36.624 118.594 37.712 117.634 38.672C116.738 39.568 115.586 40.016 114.178 40.016ZM114.178 98C113.026 98 112.066 97.712 111.298 97.136C110.594 96.496 110.242 95.824 110.242 95.12V55.28C110.242 54.448 110.594 53.776 111.298 53.264C112.066 52.752 113.026 52.496 114.178 52.496C115.266 52.496 116.194 52.752 116.962 53.264C117.794 53.776 118.21 54.448 118.21 55.28V95.12C118.21 95.824 117.794 96.496 116.962 97.136C116.194 97.712 115.266 98 114.178 98ZM146.286 98C145.262 98 144.334 97.776 143.502 97.328C142.67 96.816 142.254 96.08 142.254 95.12V35.312H126.702C125.87 35.312 125.198 34.928 124.686 34.16C124.174 33.392 123.918 32.496 123.918 31.472C123.918 30.576 124.142 29.744 124.59 28.976C125.038 28.208 125.742 27.824 126.702 27.824H165.87C166.83 27.824 167.534 28.208 167.982 28.976C168.43 29.744 168.654 30.576 168.654 31.472C168.654 32.432 168.43 33.328 167.982 34.16C167.534 34.928 166.83 35.312 165.87 35.312H150.318V95.12C150.318 96.08 149.902 96.816 149.07 97.328C148.238 97.776 147.31 98 146.286 98ZM180.292 98C179.204 98 178.308 97.744 177.604 97.232C176.964 96.656 176.644 95.984 176.644 95.216V30.608C176.644 29.84 176.964 29.2 177.604 28.688C178.308 28.112 179.204 27.824 180.292 27.824H197.284C201.188 27.824 204.708 28.528 207.844 29.936C210.98 31.28 213.444 33.488 215.236 36.56C217.092 39.568 218.02 43.632 218.02 48.752V77.072C218.02 82.192 217.092 86.288 215.236 89.36C213.444 92.368 210.98 94.576 207.844 95.984C204.708 97.328 201.188 98 197.284 98H180.292ZM184.708 90.704H197.284C201.252 90.704 204.356 89.616 206.596 87.44C208.836 85.2 209.956 81.744 209.956 77.072V48.752C209.956 44.08 208.836 40.656 206.596 38.48C204.356 36.24 201.252 35.12 197.284 35.12H184.708V90.704ZM239.57 98.768C235.986 98.768 232.914 97.744 230.354 95.696C227.858 93.584 226.61 90.352 226.61 86C226.61 82.48 227.57 79.76 229.49 77.84C231.41 75.856 234.034 74.512 237.362 73.808C240.754 73.04 244.658 72.656 249.074 72.656H253.682V70.64C253.682 68.72 253.33 66.864 252.626 65.072C251.922 63.216 250.802 61.712 249.266 60.56C247.794 59.344 245.746 58.736 243.122 58.736C240.882 58.736 239.09 58.96 237.746 59.408C236.466 59.856 235.442 60.336 234.674 60.848C233.906 61.296 233.234 61.52 232.658 61.52C231.698 61.52 230.962 61.072 230.45 60.176C229.938 59.216 229.682 58.32 229.682 57.488C229.682 56.464 230.386 55.536 231.794 54.704C233.202 53.872 234.962 53.2 237.074 52.688C239.186 52.176 241.266 51.92 243.314 51.92C247.794 51.92 251.378 52.816 254.066 54.608C256.754 56.4 258.674 58.704 259.826 61.52C261.042 64.336 261.65 67.344 261.65 70.544V95.12C261.65 95.888 261.266 96.56 260.498 97.136C259.794 97.712 258.866 98 257.714 98C256.69 98 255.826 97.712 255.122 97.136C254.418 96.56 254.066 95.888 254.066 95.12V91.28C252.402 93.2 250.386 94.928 248.018 96.464C245.65 98 242.834 98.768 239.57 98.768ZM242.066 92.336C243.922 92.336 245.714 91.824 247.442 90.8C249.234 89.776 250.706 88.496 251.858 86.96C253.074 85.424 253.682 83.952 253.682 82.544V77.552H250.322C247.634 77.552 245.074 77.712 242.642 78.032C240.274 78.352 238.354 79.056 236.882 80.144C235.41 81.168 234.674 82.832 234.674 85.136C234.674 87.632 235.378 89.456 236.786 90.608C238.194 91.76 239.954 92.336 242.066 92.336ZM288.267 98C283.083 98 279.115 96.848 276.363 94.544C273.675 92.24 272.331 88.56 272.331 83.504V34.064C272.331 33.232 272.747 32.56 273.579 32.048C274.411 31.536 275.307 31.28 276.267 31.28C277.291 31.28 278.219 31.536 279.051 32.048C279.883 32.56 280.299 33.232 280.299 34.064V52.496H292.395C293.163 52.496 293.739 52.816 294.123 53.456C294.571 54.096 294.795 54.832 294.795 55.664C294.795 56.496 294.571 57.232 294.123 57.872C293.739 58.448 293.163 58.736 292.395 58.736H280.299V83.504C280.299 86.256 280.875 88.208 282.027 89.36C283.243 90.448 285.323 90.992 288.267 90.992H291.243C292.395 90.992 293.259 91.344 293.835 92.048C294.411 92.752 294.699 93.552 294.699 94.448C294.699 95.344 294.411 96.176 293.835 96.944C293.259 97.648 292.395 98 291.243 98H288.267ZM312.132 98.768C308.548 98.768 305.476 97.744 302.916 95.696C300.42 93.584 299.172 90.352 299.172 86C299.172 82.48 300.132 79.76 302.052 77.84C303.972 75.856 306.596 74.512 309.924 73.808C313.316 73.04 317.22 72.656 321.636 72.656H326.244V70.64C326.244 68.72 325.892 66.864 325.188 65.072C324.484 63.216 323.364 61.712 321.828 60.56C320.356 59.344 318.308 58.736 315.684 58.736C313.444 58.736 311.652 58.96 310.308 59.408C309.028 59.856 308.004 60.336 307.236 60.848C306.468 61.296 305.796 61.52 305.22 61.52C304.26 61.52 303.524 61.072 303.012 60.176C302.5 59.216 302.244 58.32 302.244 57.488C302.244 56.464 302.948 55.536 304.356 54.704C305.764 53.872 307.524 53.2 309.636 52.688C311.748 52.176 313.828 51.92 315.876 51.92C320.356 51.92 323.94 52.816 326.628 54.608C329.316 56.4 331.236 58.704 332.388 61.52C333.604 64.336 334.212 67.344 334.212 70.544V95.12C334.212 95.888 333.828 96.56 333.06 97.136C332.356 97.712 331.428 98 330.276 98C329.252 98 328.388 97.712 327.684 97.136C326.98 96.56 326.628 95.888 326.628 95.12V91.28C324.964 93.2 322.948 94.928 320.58 96.464C318.212 98 315.396 98.768 312.132 98.768ZM314.628 92.336C316.484 92.336 318.276 91.824 320.004 90.8C321.796 89.776 323.268 88.496 324.42 86.96C325.636 85.424 326.244 83.952 326.244 82.544V77.552H322.884C320.196 77.552 317.636 77.712 315.204 78.032C312.836 78.352 310.916 79.056 309.444 80.144C307.972 81.168 307.236 82.832 307.236 85.136C307.236 87.632 307.94 89.456 309.348 90.608C310.756 91.76 312.516 92.336 314.628 92.336Z" fill="white"/>
<rect x="68" y="78" width="24" height="24" fill="#FAB710"/>
<rect x="68" y="49" width="24" height="24" fill="#FAB710"/>
<rect x="34" y="49" width="24" height="24" fill="#FAB710"/>
<rect x="34" y="78" width="24" height="24" fill="#FAB710"/>
<rect y="78" width="24" height="24" fill="#FAB710"/>
<rect x="68" y="20" width="24" height="24" fill="#FAB710"/>
</svg>
